<?xml version="1.0" encoding="UTF-8"?>
<svg id="Laag_1" data-name="Laag 1" xmlns="http://www.w3.org/2000/svg" xmlns:xlink="http://www.w3.org/1999/xlink" viewBox="0 0 841.89 245.83">
  <defs>
    <style>
      .cls-1 {
        fill: #dc3914;
      }

      .cls-2 {
        fill: url(#Naamloos_verloop_25);
      }

      .cls-3 {
        fill: #1d1d1b;
      }

      .cls-4 {
        fill: #f39322;
      }

      .cls-5 {
        fill: url(#Naamloos_verloop_6-4);
      }

      .cls-6 {
        fill: url(#Naamloos_verloop_6-3);
      }

      .cls-7 {
        fill: url(#Naamloos_verloop_6-2);
      }

      .cls-8 {
        fill: #eb5b27;
      }

      .cls-9 {
        fill: url(#Naamloos_verloop_6);
      }
    </style>
    <linearGradient id="Naamloos_verloop_6" data-name="Naamloos verloop 6" x1="253.47" y1="227.11" x2="277.41" y2="101.4" gradientUnits="userSpaceOnUse">
      <stop offset="0" stop-color="#fec906"/>
      <stop offset="1" stop-color="#f39322"/>
    </linearGradient>
    <linearGradient id="Naamloos_verloop_25" data-name="Naamloos verloop 25" x1="395.47" y1="103.57" x2="346.17" y2="157.95" gradientUnits="userSpaceOnUse">
      <stop offset=".21" stop-color="#f39322"/>
      <stop offset=".69" stop-color="#eb5b27"/>
      <stop offset="1" stop-color="#dc3914"/>
    </linearGradient>
    <linearGradient id="Naamloos_verloop_6-2" data-name="Naamloos verloop 6" x1="146.84" y1="228.49" x2="179.87" y2="51.8" xlink:href="#Naamloos_verloop_6"/>
    <linearGradient id="Naamloos_verloop_6-3" data-name="Naamloos verloop 6" x1="319.09" y1="153.43" x2="399.54" y2="135.28" xlink:href="#Naamloos_verloop_6"/>
    <linearGradient id="Naamloos_verloop_6-4" data-name="Naamloos verloop 6" x1="15.46" y1="225.62" x2="15.46" y2="49.87" gradientTransform="translate(70.45) skewX(-10.8)" xlink:href="#Naamloos_verloop_6"/>
  </defs>
  <g>
    <path class="cls-3" d="M487.61,125.13h-5.04l-34.3-51.06v51.06h-5.08v-59.67h5.08l34.34,51.1v-51.1h5v59.67Z"/>
    <path class="cls-3" d="M529.62,125.13c-.49-1.39-.81-3.46-.94-6.19-1.72,2.24-3.91,3.97-6.58,5.18-2.66,1.21-5.48,1.82-8.46,1.82-4.26,0-7.71-1.19-10.35-3.57s-3.95-5.38-3.95-9.02c0-4.32,1.8-7.73,5.39-10.25s8.6-3.77,15.02-3.77h8.89v-5.04c0-3.17-.98-5.66-2.93-7.48-1.95-1.82-4.8-2.72-8.54-2.72-3.42,0-6.24.87-8.48,2.62-2.24,1.75-3.36,3.85-3.36,6.31l-4.92-.04c0-3.52,1.64-6.58,4.92-9.16,3.28-2.58,7.31-3.87,12.09-3.87s8.85,1.24,11.7,3.71c2.86,2.47,4.32,5.92,4.41,10.35v20.98c0,4.29.45,7.5,1.35,9.63v.49h-5.25ZM514.21,121.6c3.28,0,6.21-.79,8.79-2.38,2.58-1.58,4.46-3.7,5.63-6.35v-9.75h-8.77c-4.89.05-8.72.95-11.47,2.68-2.76,1.74-4.14,4.12-4.14,7.15,0,2.49.92,4.55,2.77,6.19,1.84,1.64,4.24,2.46,7.19,2.46Z"/>
    <path class="cls-3" d="M554.2,69.43v11.35h9.18v4.02h-9.18v29.58c0,2.46.44,4.29,1.33,5.5.89,1.2,2.37,1.81,4.45,1.81.82,0,2.14-.14,3.98-.41l.21,3.98c-1.29.46-3.03.69-5.25.69-3.36,0-5.81-.98-7.34-2.93s-2.29-4.83-2.29-8.63v-29.59h-8.16v-4.02h8.16v-11.35h4.92Z"/>
    <path class="cls-3" d="M573.26,67.98c0-.92.3-1.7.9-2.34.6-.64,1.42-.96,2.46-.96s1.86.32,2.48.96c.61.64.92,1.42.92,2.34s-.31,1.7-.92,2.32c-.62.62-1.44.94-2.48.94s-1.86-.31-2.46-.94c-.6-.62-.9-1.4-.9-2.32ZM579.04,125.13h-4.92v-44.34h4.92v44.34Z"/>
    <path class="cls-3" d="M589.65,102.3c0-4.26.83-8.1,2.48-11.52,1.65-3.42,3.99-6.07,7.01-7.97,3.02-1.9,6.44-2.85,10.27-2.85,5.9,0,10.68,2.07,14.34,6.21,3.66,4.14,5.49,9.62,5.49,16.45v1.02c0,4.29-.83,8.15-2.48,11.58-1.65,3.43-3.98,6.07-6.99,7.93-3,1.86-6.43,2.79-10.29,2.79-5.87,0-10.65-2.07-14.32-6.21-3.67-4.14-5.51-9.62-5.51-16.46v-.98ZM594.57,103.65c0,5.3,1.37,9.65,4.12,13.05,2.75,3.4,6.35,5.1,10.8,5.1s8.01-1.7,10.76-5.1,4.12-7.89,4.12-13.46v-.94c0-3.39-.63-6.49-1.89-9.3-1.26-2.81-3.02-4.99-5.29-6.54-2.27-1.54-4.86-2.32-7.79-2.32-4.37,0-7.94,1.71-10.7,5.14-2.76,3.43-4.14,7.92-4.14,13.46v.9Z"/>
    <path class="cls-3" d="M644.04,80.79l.16,7.58c1.67-2.73,3.74-4.82,6.23-6.25s5.23-2.15,8.24-2.15c4.75,0,8.29,1.34,10.61,4.02s3.5,6.69,3.52,12.05v29.1h-4.88v-29.14c-.03-3.96-.87-6.91-2.52-8.85-1.65-1.94-4.3-2.91-7.93-2.91-3.03,0-5.72.95-8.05,2.85-2.34,1.9-4.06,4.46-5.18,7.68v30.37h-4.88v-44.34h4.67Z"/>
    <path class="cls-3" d="M713.46,125.13c-.49-1.39-.81-3.46-.94-6.19-1.72,2.24-3.91,3.97-6.58,5.18-2.66,1.21-5.48,1.82-8.46,1.82-4.26,0-7.71-1.19-10.35-3.57s-3.95-5.38-3.95-9.02c0-4.32,1.8-7.73,5.39-10.25s8.6-3.77,15.02-3.77h8.89v-5.04c0-3.17-.98-5.66-2.93-7.48-1.95-1.82-4.8-2.72-8.54-2.72-3.42,0-6.24.87-8.48,2.62-2.24,1.75-3.36,3.85-3.36,6.31l-4.92-.04c0-3.52,1.64-6.58,4.92-9.16,3.28-2.58,7.31-3.87,12.09-3.87s8.85,1.24,11.7,3.71c2.86,2.47,4.32,5.92,4.41,10.35v20.98c0,4.29.45,7.5,1.35,9.63v.49h-5.25ZM698.05,121.6c3.28,0,6.21-.79,8.79-2.38,2.58-1.58,4.46-3.7,5.63-6.35v-9.75h-8.77c-4.89.05-8.72.95-11.47,2.68-2.76,1.74-4.14,4.12-4.14,7.15,0,2.49.92,4.55,2.77,6.19,1.84,1.64,4.24,2.46,7.19,2.46Z"/>
    <path class="cls-3" d="M735.92,125.13h-4.92v-62.95h4.92v62.95Z"/>
    <path class="cls-3" d="M766.41,125.95c-3.77,0-7.18-.93-10.22-2.79-3.05-1.86-5.42-4.45-7.11-7.77-1.69-3.32-2.54-7.04-2.54-11.17v-1.76c0-4.26.83-8.1,2.48-11.52,1.65-3.42,3.95-6.1,6.91-8.05,2.95-1.95,6.15-2.93,9.59-2.93,5.38,0,9.65,1.84,12.81,5.51,3.16,3.68,4.73,8.7,4.73,15.06v2.75h-31.64v.94c0,5.03,1.44,9.21,4.32,12.56,2.88,3.35,6.51,5.02,10.88,5.02,2.62,0,4.94-.48,6.95-1.43,2.01-.96,3.83-2.49,5.47-4.59l3.07,2.34c-3.61,5.22-8.84,7.83-15.7,7.83ZM765.51,84.15c-3.69,0-6.8,1.35-9.32,4.06-2.53,2.71-4.06,6.34-4.61,10.9h26.6v-.53c-.14-4.26-1.35-7.73-3.65-10.41-2.29-2.68-5.3-4.02-9.02-4.02Z"/>
    <path class="cls-3" d="M487.61,203.97h-5.04l-34.3-51.06v51.06h-5.08v-59.67h5.08l34.34,51.1v-51.1h5v59.67Z"/>
    <path class="cls-3" d="M529.62,203.97c-.49-1.39-.81-3.46-.94-6.19-1.72,2.24-3.91,3.97-6.58,5.18-2.66,1.21-5.48,1.82-8.46,1.82-4.26,0-7.71-1.19-10.35-3.57s-3.95-5.38-3.95-9.02c0-4.32,1.8-7.73,5.39-10.25s8.6-3.77,15.02-3.77h8.89v-5.04c0-3.17-.98-5.66-2.93-7.48-1.95-1.82-4.8-2.72-8.54-2.72-3.42,0-6.24.87-8.48,2.62-2.24,1.75-3.36,3.85-3.36,6.31l-4.92-.04c0-3.52,1.64-6.58,4.92-9.16,3.28-2.58,7.31-3.87,12.09-3.87s8.85,1.24,11.7,3.71c2.86,2.47,4.32,5.92,4.41,10.35v20.98c0,4.29.45,7.5,1.35,9.63v.49h-5.25ZM514.21,200.44c3.28,0,6.21-.79,8.79-2.38,2.58-1.58,4.46-3.7,5.63-6.35v-9.75h-8.77c-4.89.05-8.72.95-11.47,2.68-2.76,1.74-4.14,4.12-4.14,7.15,0,2.49.92,4.55,2.77,6.19,1.84,1.64,4.24,2.46,7.19,2.46Z"/>
    <path class="cls-3" d="M574.57,203.97c-.49-1.39-.81-3.46-.94-6.19-1.72,2.24-3.91,3.97-6.58,5.18-2.66,1.21-5.48,1.82-8.46,1.82-4.26,0-7.71-1.19-10.35-3.57s-3.95-5.38-3.95-9.02c0-4.32,1.8-7.73,5.39-10.25s8.6-3.77,15.02-3.77h8.89v-5.04c0-3.17-.98-5.66-2.93-7.48-1.95-1.82-4.8-2.72-8.54-2.72-3.42,0-6.24.87-8.48,2.62-2.24,1.75-3.36,3.85-3.36,6.31l-4.92-.04c0-3.52,1.64-6.58,4.92-9.16,3.28-2.58,7.31-3.87,12.09-3.87s8.85,1.24,11.7,3.71c2.86,2.47,4.32,5.92,4.41,10.35v20.98c0,4.29.45,7.5,1.35,9.63v.49h-5.25ZM559.16,200.44c3.28,0,6.21-.79,8.79-2.38,2.58-1.58,4.46-3.7,5.63-6.35v-9.75h-8.77c-4.89.05-8.72.95-11.47,2.68-2.76,1.74-4.14,4.12-4.14,7.15,0,2.49.92,4.55,2.77,6.19,1.84,1.64,4.24,2.46,7.19,2.46Z"/>
    <path class="cls-3" d="M596.01,159.62l.16,7.21c1.64-2.68,3.69-4.69,6.15-6.02,2.46-1.34,5.19-2.01,8.2-2.01,6.99,0,11.43,2.87,13.32,8.61,1.58-2.76,3.7-4.88,6.35-6.37,2.65-1.49,5.57-2.23,8.77-2.23,9.51,0,14.36,5.19,14.55,15.57v29.59h-4.92v-29.22c-.03-3.96-.88-6.9-2.56-8.81-1.68-1.91-4.42-2.87-8.22-2.87-3.52.06-6.5,1.2-8.93,3.42s-3.78,4.94-4.06,8.13v29.34h-4.92v-29.59c-.03-3.8-.92-6.63-2.68-8.5-1.76-1.87-4.47-2.81-8.13-2.81-3.09,0-5.74.88-7.95,2.64-2.21,1.76-3.85,4.38-4.92,7.85v30.41h-4.92v-44.34h4.71Z"/>
    <path class="cls-3" d="M701.58,182.25c0,6.91-1.53,12.4-4.59,16.45-3.06,4.06-7.16,6.09-12.29,6.09-6.07,0-10.71-2.13-13.93-6.39v22.62h-4.88v-61.39h4.55l.25,6.27c3.2-4.73,7.83-7.09,13.89-7.09,5.3,0,9.46,2.01,12.48,6.02s4.53,9.59,4.53,16.72v.7ZM696.66,181.38c0-5.66-1.16-10.12-3.48-13.4-2.32-3.28-5.56-4.92-9.71-4.92-3.01,0-5.59.72-7.75,2.17s-3.81,3.55-4.96,6.31v21.27c1.17,2.54,2.85,4.48,5.04,5.82,2.19,1.34,4.77,2.01,7.75,2.01,4.12,0,7.34-1.65,9.65-4.94,2.31-3.29,3.46-8.07,3.46-14.32Z"/>
    <path class="cls-3" d="M732.93,163.8c-1.04-.19-2.14-.29-3.32-.29-3.06,0-5.65.85-7.77,2.56-2.12,1.71-3.63,4.19-4.53,7.44v30.45h-4.88v-44.34h4.79l.08,7.05c2.6-5.25,6.76-7.87,12.5-7.87,1.37,0,2.44.18,3.24.53l-.12,4.47Z"/>
    <path class="cls-3" d="M740.39,146.82c0-.92.3-1.7.9-2.34.6-.64,1.42-.96,2.46-.96s1.86.32,2.48.96c.61.64.92,1.42.92,2.34s-.31,1.7-.92,2.32c-.62.62-1.44.94-2.48.94s-1.86-.31-2.46-.94c-.6-.62-.9-1.4-.9-2.32ZM746.16,203.97h-4.92v-44.34h4.92v44.34Z"/>
    <path class="cls-3" d="M764.77,159.62v49.63c0,4.1-.98,7.23-2.95,9.38-1.97,2.16-4.86,3.24-8.69,3.24-1.48,0-2.91-.26-4.3-.77l.08-4.02c1.2.35,2.43.53,3.69.53,4.86,0,7.29-2.8,7.29-8.41v-49.58h4.88ZM762.35,143.52c1.07,0,1.9.32,2.5.96.6.64.9,1.42.9,2.34s-.3,1.7-.9,2.32c-.6.62-1.43.94-2.5.94s-1.85-.31-2.44-.94c-.59-.62-.88-1.4-.88-2.32s.29-1.7.88-2.34,1.4-.96,2.44-.96Z"/>
    <path class="cls-3" d="M805.18,192.7c0-2.43-.98-4.39-2.93-5.86-1.95-1.47-4.9-2.63-8.83-3.46-3.93-.83-6.99-1.79-9.16-2.87s-3.78-2.4-4.84-3.96-1.58-3.44-1.58-5.66c0-3.5,1.46-6.39,4.39-8.67,2.92-2.28,6.67-3.42,11.23-3.42,4.94,0,8.91,1.22,11.91,3.67,2.99,2.45,4.49,5.63,4.49,9.57h-4.92c0-2.6-1.09-4.75-3.26-6.48-2.17-1.72-4.91-2.58-8.22-2.58s-5.81.72-7.77,2.15c-1.95,1.43-2.93,3.3-2.93,5.59s.81,3.93,2.44,5.14c1.62,1.22,4.59,2.33,8.89,3.34,4.3,1.01,7.53,2.09,9.67,3.24s3.74,2.53,4.77,4.14,1.56,3.57,1.56,5.86c0,3.74-1.51,6.73-4.53,8.97-3.02,2.24-6.96,3.36-11.82,3.36-5.16,0-9.35-1.25-12.56-3.75-3.21-2.5-4.81-5.66-4.81-9.49h4.92c.19,2.87,1.4,5.1,3.63,6.7,2.23,1.6,5.17,2.4,8.83,2.4,3.42,0,6.17-.75,8.28-2.25,2.1-1.5,3.16-3.4,3.16-5.7Z"/>
  </g>
  <g>
    <path class="cls-8" d="M284.63,214.92l-47.95-174.83c-1.89-6.89-8.83-11.11-15.82-9.61l-37.55,8.03,49.97,182.19c.05.17.13.33.19.5h-.03c.71,2.55,3.04,4.41,5.82,4.41h5l.41-2.15,39.97-8.55Z"/>
    <path class="cls-8" d="M177.93,214.92l-47.95-174.83c-1.89-6.89-8.83-11.11-15.82-9.61l-37.55,8.03,49.97,182.19c.05.17.13.33.19.5h-.03c.71,2.55,3.04,4.41,5.82,4.41h5l.41-2.15,39.97-8.55Z"/>
    <path class="cls-1" d="M234.6,32.38l27.74,98.42-8.17,42.83L212.61,27.82h15.96c2.81,0,5.27,1.87,6.03,4.57Z"/>
    <path class="cls-1" d="M127.9,32.38l27.74,98.42-8.17,42.83L105.9,27.82h15.96c2.81,0,5.27,1.87,6.03,4.57Z"/>
    <path class="cls-4" d="M343.47,33.05c-47.93,0-69.57,28.45-75.97,70.59-.01.07-.02.15-.03.22h-.01l-23.23,121.76h25.66c12.94,0,24.05-9.19,26.48-21.9l19.05-99.85.05.03c.06-.4.09-.8.17-1.2,2.84-14.87,13.26-26.92,27.84-26.92s26.45,12.05,23.62,26.92c-2.84,14.87-15.67,27.21-30.25,27.21-.74,0-1.46-.05-2.17-.12l-8.34,44.2c.09,0,.17,0,.26,0,44.65,0,76.47-23.97,82.3-62.52,6.31-41.74-21.91-78.43-65.41-78.43Z"/>
    <path class="cls-9" d="M268.05,100.72l-22.96,120.37c-.67,2.6-3.01,4.53-5.82,4.53h17.79c6.47,0,12.03-4.6,13.24-10.95l21.74-113.94h-23.98Z"/>
    <path class="cls-2" d="M326.32,173.99l8.34-44.2c.71.06,1.43.12,2.17.12,14.58,0,27.41-12.34,30.25-27.21l41.8,8.79c-5.83,38.54-37.65,62.52-82.3,62.52"/>
    <path class="cls-4" d="M116.57,27.82h-25.66c-12.94,0-24.05,9.19-26.48,21.9L30.88,225.62h25.66c12.94,0,24.05-9.19,26.48-21.9L115.67,32.54v.06c.7-2.75,3.19-4.78,6.15-4.78h-5.25Z"/>
    <path class="cls-4" d="M228.42,27.82h-30.84c-12.94,0-24.05,9.19-26.48,21.9l-33.55,175.9h25.66c12.94,0,24.05-9.19,26.48-21.9l32.72-171.53c.83-2.53,3.2-4.37,6.01-4.37Z"/>
    <path class="cls-7" d="M171.08,49.87l-32.59,170.85h0c-.53,2.79-2.98,4.9-5.93,4.9h17.83c6.47,0,12.03-4.6,13.24-10.95l31.44-164.8h-23.98Z"/>
    <path class="cls-6" d="M326.58,173.99c44.65,0,76.47-23.97,82.3-62.52h-15.24c-15.01,46.39-63.77,43.72-63.77,43.72l-3.55,18.79s.1,0,.14,0h.12Z"/>
    <path class="cls-5" d="M43.71,225.62h-12.83L64.4,49.87h23.98l-31.44,164.8c-1.21,6.36-6.77,10.95-13.24,10.95Z"/>
  </g>
</svg>
